<svg xmlns="http://www.w3.org/2000/svg" version="1.1" xmlns:xlink="http://www.w3.org/1999/xlink" xmlns:svgjs="http://svgjs.dev/svgjs" width="1000" height="1000" viewBox="0 0 1000 1000"><rect width="1000" height="1000" fill="#000000"></rect><g transform="matrix(0.7,0,0,0.7,149.57575757575756,411.11191137509354)"><svg viewBox="0 0 396 101" data-background-color="#282634" preserveAspectRatio="xMidYMid meet" height="255" width="1000" xmlns="http://www.w3.org/2000/svg" xmlns:xlink="http://www.w3.org/1999/xlink"><g id="tight-bounds" transform="matrix(1,0,0,1,0.2400000000000091,-0.20477898534704764)"><svg viewBox="0 0 395.52 101.40955797069408" height="101.40955797069408" width="395.52"><g><svg viewBox="0 0 582.8139505229555 149.43088870774395" height="101.40955797069408" width="395.52"><g><rect width="6.191302538069375" height="149.43088870774395" x="164.8950497176888" y="0" fill="#ffffff" opacity="1" stroke-width="0" stroke="transparent" fill-opacity="1" class="rect-o-0" data-fill-palette-color="primary" rx="1%" id="o-0" data-palette-color="#ffffff"></rect></g><g transform="matrix(1,0,0,1,187.2939505229555,0.3717186286262262)"><svg viewBox="0 0 395.52 148.6874514504915" height="148.6874514504915" width="395.52"><g id="textblocktransform"><svg viewBox="0 0 395.52 148.6874514504915" height="148.6874514504915" width="395.52" id="textblock"><g><svg viewBox="0 0 395.52 148.6874514504915" height="148.6874514504915" width="395.52"><g transform="matrix(1,0,0,1,0,0)"><svg width="395.52" viewBox="-0.7999997138977051 -35 210.75 74.80000305175781" height="148.6874514504915" data-palette-color="#ffffff"><svg></svg><svg></svg><g class="wordmark-text-0" data-fill-palette-color="primary" id="text-0"><path xmlns="http://www.w3.org/2000/svg" d="M10.6 0.6c-2.367 0-4.54-0.443-6.52-1.33-1.987-0.88-3.613-2.137-4.88-3.77v0l4.5-5.4c1.9 2.567 4.067 3.85 6.5 3.85v0c3.3 0 4.95-1.933 4.95-5.8v0-16.65h-12.3v-6.5h20.35v22.7c0 4.3-1.067 7.523-3.2 9.67-2.133 2.153-5.267 3.23-9.4 3.23zM39.25-6.5h19.05v6.5h-27.1v-35h26.45v6.5h-18.4v7.6h16.25v6.3h-16.25zM72 0v-28.4h-11.2v-6.6h30.5v6.6h-11.2v28.4z" fill="#ffffff" fill-rule="nonzero" stroke="none" stroke-width="1" stroke-linecap="butt" stroke-linejoin="miter" stroke-miterlimit="10" stroke-dasharray="" stroke-dashoffset="0" font-family="none" font-weight="none" font-size="none" text-anchor="none" style="mix-blend-mode: normal" data-fill-palette-color="primary" opacity="1"></path><path xmlns="http://www.w3.org/2000/svg" d="M15.65 39.8c-2.767 0-5.44-0.377-8.02-1.13-2.587-0.747-4.663-1.72-6.23-2.92v0l2.75-6.1c1.5 1.1 3.283 1.983 5.35 2.65 2.067 0.667 4.133 1 6.2 1v0c2.3 0 4-0.343 5.1-1.03 1.1-0.68 1.65-1.587 1.65-2.72v0c0-0.833-0.323-1.527-0.97-2.08-0.653-0.547-1.487-0.987-2.5-1.32-1.02-0.333-2.397-0.7-4.13-1.1v0c-2.667-0.633-4.85-1.267-6.55-1.9-1.7-0.633-3.157-1.65-4.37-3.05-1.22-1.4-1.83-3.267-1.83-5.6v0c0-2.033 0.55-3.877 1.65-5.53 1.1-1.647 2.757-2.953 4.97-3.92 2.22-0.967 4.93-1.45 8.13-1.45v0c2.233 0 4.417 0.267 6.55 0.8 2.133 0.533 4 1.3 5.6 2.3v0l-2.5 6.15c-3.233-1.833-6.467-2.75-9.7-2.75v0c-2.267 0-3.94 0.367-5.02 1.1-1.087 0.733-1.63 1.7-1.63 2.9v0c0 1.2 0.627 2.09 1.88 2.67 1.247 0.587 3.153 1.163 5.72 1.73v0c2.667 0.633 4.85 1.267 6.55 1.9 1.7 0.633 3.16 1.633 4.38 3 1.213 1.367 1.82 3.217 1.82 5.55v0c0 2-0.557 3.823-1.67 5.47-1.12 1.653-2.797 2.963-5.03 3.93-2.233 0.967-4.95 1.45-8.15 1.45zM51.2 4.2c3.1 0 5.793 0.517 8.08 1.55 2.28 1.033 4.037 2.5 5.27 4.4 1.233 1.9 1.85 4.15 1.85 6.75v0c0 2.567-0.617 4.807-1.85 6.72-1.233 1.92-2.99 3.387-5.27 4.4-2.287 1.02-4.98 1.53-8.08 1.53v0h-7.05v9.65h-8.1v-35zM50.75 22.95c2.433 0 4.283-0.523 5.55-1.57 1.267-1.053 1.9-2.547 1.9-4.48v0c0-1.967-0.633-3.477-1.9-4.53-1.267-1.047-3.117-1.57-5.55-1.57v0h-6.6v12.15zM96.15 4.2h8.1v35h-8.1v-14.35h-15.9v14.35h-8.1v-35h8.1v13.8h15.9zM120.6 32.7h19.05v6.5h-27.1v-35h26.45v6.5h-18.4v7.6h16.25v6.3h-16.25zM177.1 39.2h-8.7l-6.75-9.75h-0.4-7.05v9.75h-8.1v-35h15.15c3.1 0 5.793 0.517 8.08 1.55 2.28 1.033 4.037 2.5 5.27 4.4 1.233 1.9 1.85 4.15 1.85 6.75v0c0 2.6-0.623 4.84-1.87 6.72-1.253 1.887-3.03 3.33-5.33 4.33v0zM168.25 16.9c0-1.967-0.633-3.477-1.9-4.53-1.267-1.047-3.117-1.57-5.55-1.57v0h-6.6v12.2h6.6c2.433 0 4.283-0.533 5.55-1.6 1.267-1.067 1.9-2.567 1.9-4.5zM190.9 32.7h19.05v6.5h-27.1v-35h26.45v6.5h-18.4v7.6h16.25v6.3h-16.25z" fill="#ffffff" fill-rule="nonzero" stroke="none" stroke-width="1" stroke-linecap="butt" stroke-linejoin="miter" stroke-miterlimit="10" stroke-dasharray="" stroke-dashoffset="0" font-family="none" font-weight="none" font-size="none" text-anchor="none" style="mix-blend-mode: normal" data-fill-palette-color="primary" opacity="1"></path></g></svg></g></svg></g></svg></g></svg></g><g transform="matrix(1,0,0,1,0,0.3717186286262262)"><svg viewBox="0 0 148.6874514504915 148.6874514504915" height="148.6874514504915" width="148.6874514504915"><g><svg xmlns="http://www.w3.org/2000/svg" xmlns:xlink="http://www.w3.org/1999/xlink" version="1.1" baseProfile="tiny" x="0" y="0" viewBox="0 0 100 100" xml:space="preserve" height="148.6874514504915" width="148.6874514504915" class="icon-icon-0" data-fill-palette-color="accent" id="icon-0"><path d="M100 52.993v-6.004H53.466v-3.947h45.905c0 0-3.666-37.641-41.991-42.47v34.642h31.661c0 0-5.333-14.49-13.331-17.821v11.992H63.546V8.566c0 0 22.161 3.165 29.327 29.313l-39.407-0.232V0h-6.005v37.611L8.058 37.379c0 0 5.331-23.317 29.826-29.812l-0.333 21.818H25.554V17.061c0 0-9.998 4.996-13.997 18.154H43.05V0.739c0 0-37.326 5.496-42.491 42.303h46.902v3.947H0v6.004h47.461v4.537H0.642c5.166 36.806 42.492 42.302 42.492 42.302V65.357H11.64c3.999 13.158 13.997 18.154 13.997 18.154V71.187h11.998l0.333 21.818C13.473 86.51 8.141 63.192 8.141 63.192l39.32-0.231v36.988h6.005V62.925l39.49-0.231c-7.165 26.147-29.327 29.313-29.327 29.313V71.187h12.165v11.991c7.998-3.33 13.33-17.819 13.33-17.819H57.463V100c38.326-4.829 41.992-42.47 41.992-42.47H53.466v-4.537H100z" fill="#ffffff" data-fill-palette-color="accent"></path></svg></g></svg></g></svg></g><defs></defs></svg><rect width="395.52" height="101.40955797069408" fill="none" stroke="none" visibility="hidden"></rect></g></svg></g></svg>